File Name

A Dangerous Man 2009 BRRip H264 LKRG-Wrath.mp4

File Size
Format : MPEG-4
Format profile : Base Media
Codec ID : isom
File size : 1.65 GiB
Duration : 1h 30mn
Overall bit rate : 2 595 Kbps

Video
ID : 1
Format : AVC
Format/Info : Advanced Video Codec
Format profile : High@L4.1
Format settings, CABAC : Yes
Format settings, ReFrames : 3 frames
Codec ID : avc1
Codec ID/Info : Advanced Video Coding
Duration : 1h 30mn
Bit rate mode : Variable
Bit rate : 2 019 Kbps
Maximum bit rate : 11.5 Mbps
Width : 1 280 pixels
Height : 688 pixels
Display aspect ratio : 1.860
Frame rate mode : Constant
Frame rate : 23.976 fps
Resolution : 24 bits
Colorimetry : 4:2:0
Scan type : Progressive
Bits/(Pixel*Frame) : 0.096
Stream size : 1.28 GiB (78%)

Audio #1
ID : 2
Format : AAC
Format/Info : Advanced Audio Codec
Format version : Version 4
Format profile : LC
Format settings, SBR : No
Codec ID : 40
Duration : 1h 30mn
Bit rate mode : Variable
Bit rate : 128 Kbps
Maximum bit rate : 137 Kbps
Channel(s) : 2 channels
Channel positions : L R
Sampling rate : 48.0 KHz
Resolution : 16 bits
Stream size : 83.3 MiB (5%)

Audio #2
ID : 3
Format : AAC
Format/Info : Advanced Audio Codec
Format version : Version 4
Format profile : LC
Format settings, SBR : No
Codec ID : 40
Duration : 1h 30mn
Bit rate mode : Variable
Bit rate : 448 Kbps
Maximum bit rate : 465 Kbps
Channel(s) : 6 channels
Channel positions : Front: L C R, Rear: L R, LFE
Sampling rate : 48.0 KHz
Resolution : 16 bits
Stream size : 291 MiB (17%)

English SRT : N/A

Language : English

 
http://www.imdb.com/title/tt1360767/

Release Date: 9 February 2010 (USA) 

Genre: Action | Thriller 

Plot: After serving 6 years for a crime he didn't commit, Shane Daniels is released from jail with an apology from the State of Arizona. Within hours of his freedom, he unluckily bears witness to a cop killing by Chinese mafia who have a kidnapped girl and a bag of drugmoney. In this action packed thrill ride, Shane agreed to help the girl to get her uncle back to safety. To to that he gets some help from Russian mafia, whos boss owns him a favor for saving his son from the Chinese cop killing action mentioned above.

Cast: 
Steven Seagal ... Shane Daniels
Marlaina Mah ... Tia
Vitaly Kravchenko ... Vlad
Jesse Hutch ... Sergey
Terry Chen ... Chen
Byron Mann ... The Colonel
Byron Lawson ... Mao
Jerry Wasserman ... Sgt. Ritchie
Shawn C. Orr ... Sanchez (as Shawn Orr)
Mike Dopud ... Clark
Vincent Cheng ... Uncle Kuan
Dan Rizzuto ... Scar
Fraser Aitcheson ... Prison Guard
Aidan Dee ... Shane's Wife
Clay Virtue ... Mugger


Screenshots
 
http://postimg.com/image/17000/16734.jpg
 
http://postimg.com/image/17000/16735.jpg
 
http://postimg.com/image/17000/16736.jpg
 
http://postimg.com/image/17000/16737.jpg